<?xml version="1.0" encoding="UTF-8" standalone="no"?>
<!-- Created with Inkscape (http://www.inkscape.org/) -->

<svg
   width="200.7579mm"
   height="111.23831mm"
   viewBox="0 0 200.7579 111.23831"
   version="1.1"
   id="svg1"
   xml:space="preserve"
   inkscape:version="1.4.2 (ebf0e940d0, 2025-05-08)"
   sodipodi:docname="logo.svg"
   xmlns:inkscape="http://www.inkscape.org/namespaces/inkscape"
   xmlns:sodipodi="http://sodipodi.sourceforge.net/DTD/sodipodi-0.dtd"
   xmlns="http://www.w3.org/2000/svg"
   xmlns:svg="http://www.w3.org/2000/svg"><sodipodi:namedview
     id="namedview1"
     pagecolor="#ffffff"
     bordercolor="#000000"
     borderopacity="0.25"
     inkscape:showpageshadow="2"
     inkscape:pageopacity="0.0"
     inkscape:pagecheckerboard="0"
     inkscape:deskcolor="#d1d1d1"
     inkscape:document-units="mm"
     inkscape:zoom="0.78867008"
     inkscape:cx="413.98806"
     inkscape:cy="187.0237"
     inkscape:window-width="1536"
     inkscape:window-height="831"
     inkscape:window-x="0"
     inkscape:window-y="0"
     inkscape:window-maximized="1"
     inkscape:current-layer="layer1" /><defs
     id="defs1" /><g
     inkscape:label="Layer 1"
     inkscape:groupmode="layer"
     id="layer1"
     transform="translate(-4.6292552,-115.96039)"><path
       style="fill:#818cf8;fill-opacity:1;stroke:#818cf8;stroke-width:2.2;stroke-dasharray:none;stroke-opacity:1"
       d="m 100.65679,225.94329 c -13.191338,-0.91877 -25.41664,-6.75184 -35.111705,-16.7529 -2.392894,-2.46841 -4.504488,-4.48803 -4.692431,-4.48803 -0.187943,0 -3.450657,0.72116 -7.250475,1.60258 -29.460103,6.83364 -46.6099847,7.0802 -47.809293,0.68734 -1.0364138,-5.52456 11.071751,-15.21559 33.555247,-26.85666 5.733987,-2.96883 8.222699,-4.05019 9.321362,-4.05019 2.007263,0 3.134091,1.15025 3.134091,3.19924 0,1.88934 -0.630379,2.51958 -4.941375,4.94025 -4.535265,2.5466 -9.914392,6.6571 -10.99073,8.39865 -0.874716,1.41532 -0.891859,1.5623 -0.256433,2.1986 0.525746,0.52648 1.634498,0.71304 4.8647,0.81857 5.3582,0.17505 13.798111,-1.20704 25.738812,-4.2149 13.538574,-3.41036 18.039545,-4.84136 49.97314,-15.88805 9.26743,-3.20586 18.92562,-6.02542 25.00562,-7.30001 5.95868,-1.24915 12.70837,-1.30493 15.0317,-0.12421 2.91406,1.48092 3.29829,2.42851 3.28696,8.10632 -0.0154,7.69109 -1.7248,14.70012 -5.28832,21.68307 -4.83624,9.47691 -13.17194,17.19983 -24.13631,22.36199 -9.83086,4.62849 -19.02952,6.40304 -29.43456,5.67834 z m 10.43546,-1.22177 c 15.03773,-1.82971 29.99324,-10.07982 38.12527,-21.03156 5.85966,-7.89144 9.28636,-18.1505 9.28636,-27.80203 0,-6.13465 -1.49055,-7.50277 -8.22225,-7.54688 -6.70612,-0.0439 -20.20753,3.42789 -38.26834,9.84057 -24.440091,8.67772 -39.0252,13.1141 -52.851064,16.07583 -9.240928,1.97955 -12.727024,2.45691 -18.004847,2.46543 -3.837174,0.006 -4.925195,-0.12776 -5.82559,-0.71723 -1.629711,-1.06694 -1.511865,-2.94773 0.318697,-5.08633 1.428669,-1.66908 7.7557,-6.17321 12.169581,-8.66337 2.982154,-1.68243 3.540532,-2.61166 2.448849,-4.0753 -0.44025,-0.59026 -1.090786,-1.13034 -1.445636,-1.20019 -0.71514,-0.14076 -10.806195,4.95926 -18.20647,9.20155 -9.966142,5.71321 -16.409069,10.32245 -20.531353,14.68803 -4.0535887,4.29283 -4.2128627,6.52443 -0.5940527,8.32334 1.8287717,0.90908 2.6611347,1.03237 7.9027177,1.17055 9.395735,0.2477 21.080705,-1.56695 41.515864,-6.44732 2.326823,-0.55569 3.234552,-0.035 7.103722,4.07525 11.743305,12.47486 28.607978,18.73372 45.078542,16.72966 z M 56.784667,170.33398 c -5.250905,-1.03359 -6.763761,-4.5472 -5.179088,-12.02844 2.948225,-13.91857 10.959474,-25.21256 23.030302,-32.46734 5.956414,-3.57991 14.614771,-6.92747 20.706327,-8.00564 12.828492,-2.27057 27.566822,0.57522 38.607812,7.45469 4.33298,2.69981 9.74711,7.32596 12.52347,10.70078 1.56813,1.90615 2.6007,2.83022 3.01692,2.69991 3.98181,-1.2467 20.43662,-4.71354 27.00126,-5.68885 18.08284,-2.68658 27.81105,-1.29577 27.79547,3.97383 -0.009,3.15445 -4.38012,8.08103 -11.71641,13.20626 -8.76616,6.12415 -25.49624,15.43609 -28.54787,15.8897 -3.28379,0.48812 -6.33661,-2.31694 -6.33661,-5.82235 0,-2.51063 1.01269,-4.00287 3.88373,-5.72286 6.83121,-4.09244 11.85339,-8.36056 11.56988,-9.83272 -0.27402,-1.42286 -1.91266,-1.77753 -7.27734,-1.57512 -11.37399,0.42913 -32.45529,5.83606 -60.09556,15.41328 -22.698576,7.86494 -33.632176,10.98748 -41.376251,11.81668 -4.469123,0.47853 -5.120122,0.47752 -7.606042,-0.0118 z m 8.786788,-1.22607 c 7.666043,-1.04641 16.215744,-3.58118 44.283635,-13.12901 14.7021,-5.0012 25.12427,-8.1233 35.15795,-10.53201 12.19089,-2.92657 22.9479,-4.28902 26.40574,-3.34448 5.38894,1.47206 3.2891,5.28318 -6.35354,11.53141 -4.66416,3.02229 -5.39159,3.64593 -5.9681,5.11666 -0.59139,1.50867 -0.59499,1.82217 -0.0363,3.15935 0.67547,1.61662 2.75397,3.13368 4.29674,3.13611 2.27926,0.004 20.48845,-10.13463 28.66897,-15.96185 9.54158,-6.79673 13.06496,-11.8174 9.99039,-14.23586 -2.05227,-1.61432 -3.73234,-1.89383 -11.21683,-1.86613 -9.50352,0.0352 -21.62375,1.94017 -37.40642,5.87936 l -4.90576,1.22442 -2.02197,-2.33869 c -5.47651,-6.33434 -10.87881,-10.54175 -17.99334,-14.01357 -14.38544,-7.01993 -29.349774,-7.45267 -44.302739,-1.28115 -11.605076,4.78975 -19.878758,11.55639 -25.491881,20.84857 -4.986432,8.25472 -7.85634,19.50645 -5.92701,23.23736 1.389372,2.68675 5.672521,3.54519 12.820465,2.56951 z"
       id="path1" /></g></svg>
